<svg width="40" height="40" viewBox="0 0 40 40" fill="none" xmlns="http://www.w3.org/2000/svg">
<path fill-rule="evenodd" clip-rule="evenodd" d="M2.08398 18.3337C2.08398 13.9614 5.6284 10.417 10.0007 10.417H30.0007C34.3729 10.417 37.9173 13.9614 37.9173 18.3337V28.3337C37.9173 32.7059 34.3729 36.2503 30.0007 36.2503H10.0007C5.6284 36.2503 2.08398 32.7059 2.08398 28.3337V18.3337ZM10.0007 12.917C7.00911 12.917 4.58398 15.3421 4.58398 18.3337V28.3337C4.58398 31.3252 7.00911 33.7503 10.0007 33.7503H30.0007C32.9922 33.7503 35.4173 31.3252 35.4173 28.3337V18.3337C35.4173 15.3421 32.9922 12.917 30.0007 12.917H10.0007Z" fill="#2C9BF6"/>
<path fill-rule="evenodd" clip-rule="evenodd" d="M3.1981 14.2815C4.57771 11.9698 7.10703 10.417 10.0003 10.417H30.0003C32.8936 10.417 35.4229 11.9698 36.8025 14.2815C37.0017 14.6153 37.0343 15.0226 36.8908 15.3838C34.7498 20.7713 29.4884 24.5837 23.3337 24.5837H16.667C10.5122 24.5837 5.25088 20.7713 3.10985 15.3838C2.96633 15.0226 2.99895 14.6153 3.1981 14.2815ZM5.68812 15.055C7.60244 19.2058 11.8 22.0837 16.667 22.0837H23.3337C28.2006 22.0837 32.3982 19.2058 34.3125 15.055C33.3216 13.7538 31.7582 12.917 30.0003 12.917H10.0003C8.24245 12.917 6.679 13.7538 5.68812 15.055Z" fill="#2C9BF6"/>
<path fill-rule="evenodd" clip-rule="evenodd" d="M14.9993 6.25C13.8488 6.25 12.916 7.18274 12.916 8.33333V11.6667C12.916 12.357 12.3564 12.9167 11.666 12.9167C10.9757 12.9167 10.416 12.357 10.416 11.6667V8.33333C10.416 5.80203 12.468 3.75 14.9993 3.75H24.9993C27.5307 3.75 29.5827 5.80203 29.5827 8.33333V11.6667C29.5827 12.357 29.023 12.9167 28.3327 12.9167C27.6423 12.9167 27.0827 12.357 27.0827 11.6667V8.33333C27.0827 7.18274 26.1499 6.25 24.9993 6.25H14.9993Z" fill="#2C9BF6"/>
</svg>
