<svg width="26" height="26" viewBox="0 0 26 26" fill="none" xmlns="http://www.w3.org/2000/svg">
<path fill-rule="evenodd" clip-rule="evenodd" d="M3.66667 2C2.74619 2 2 2.74619 2 3.66667C2 14.8965 11.1035 24 22.3333 24C23.2538 24 24 23.2538 24 22.3333V20.1388C24 19.4572 23.5851 18.8444 22.9523 18.5913L20.2401 17.5064C19.4353 17.1845 18.5181 17.5332 18.1304 18.3085L17.8944 18.7805C17.6928 19.1839 17.2461 19.4024 16.8039 19.3139L17 18.3333C16.8039 19.3139 16.8042 19.314 16.8039 19.3139L16.8026 19.3136L16.8009 19.3133L16.7967 19.3125L16.7847 19.31L16.7463 19.3017C16.7146 19.2947 16.6705 19.2846 16.6152 19.2711C16.5046 19.2442 16.3487 19.2037 16.1553 19.1469C15.7691 19.0333 15.2311 18.8537 14.6061 18.5858C13.3606 18.052 11.7415 17.1557 10.2929 15.7071C8.84434 14.2585 7.94798 12.6394 7.41419 11.3939C7.1463 10.7689 6.96673 10.2309 6.85314 9.84467C6.79627 9.65134 6.75576 9.49539 6.72885 9.38479C6.7154 9.32947 6.70533 9.28543 6.69832 9.25367L6.69004 9.21534L6.68754 9.20329L6.68669 9.19909L6.68635 9.19745C6.68629 9.19713 6.68609 9.19612 7.66667 9L6.68609 9.19612C6.59765 8.75392 6.81611 8.30724 7.21945 8.10557L7.69148 7.86956C8.46678 7.48191 8.81551 6.56468 8.49358 5.75987L7.40871 3.04768C7.1556 2.41492 6.54275 2 5.86125 2H3.66667ZM8.8443 9.51612C10.3674 8.59639 11.0219 6.69561 10.3505 5.01708L9.26566 2.3049C8.70883 0.912821 7.36056 0 5.86125 0H3.66667C1.64162 0 0 1.64162 0 3.66667C0 16.001 9.99898 26 22.3333 26C24.3584 26 26 24.3584 26 22.3333V20.1388C26 18.6394 25.0872 17.2912 23.6951 16.7343L20.9829 15.6495C19.3044 14.9781 17.4036 15.6326 16.4839 17.1557C16.1875 17.0609 15.8147 16.9279 15.3939 16.7475C14.3061 16.2813 12.9252 15.511 11.7071 14.2929C10.489 13.0748 9.71868 11.6939 9.25248 10.6061C9.07214 10.1853 8.93911 9.81255 8.8443 9.51612Z" fill="#2C9BF6"/>
<path fill-rule="evenodd" clip-rule="evenodd" d="M13.334 6.33301C13.334 5.78072 13.7817 5.33301 14.334 5.33301C15.1657 5.33301 15.9893 5.49682 16.7576 5.8151C17.526 6.13338 18.2242 6.59989 18.8123 7.188C19.4004 7.7761 19.8669 8.47428 20.1852 9.24268C20.5035 10.0111 20.6673 10.8346 20.6673 11.6663C20.6673 12.2186 20.2196 12.6663 19.6673 12.6663C19.115 12.6663 18.6673 12.2186 18.6673 11.6663C18.6673 11.0973 18.5552 10.5338 18.3375 10.008C18.1197 9.4823 17.8005 9.0046 17.3981 8.60221C16.9957 8.19982 16.518 7.88063 15.9923 7.66286C15.4665 7.44509 14.903 7.33301 14.334 7.33301C13.7817 7.33301 13.334 6.88529 13.334 6.33301Z" fill="#2C9BF6"/>
<path fill-rule="evenodd" clip-rule="evenodd" d="M13.334 1C13.334 0.447715 13.7817 0 14.334 0C15.8661 -7.94728e-08 17.3832 0.301767 18.7986 0.888072C20.2141 1.47438 21.5002 2.33374 22.5836 3.41709C23.6669 4.50044 24.5263 5.78656 25.1126 7.20203C25.6989 8.61749 26.0007 10.1346 26.0007 11.6667C26.0007 12.219 25.5529 12.6667 25.0007 12.6667C24.4484 12.6667 24.0007 12.219 24.0007 11.6667C24.0007 10.3972 23.7506 9.14021 23.2648 7.96739C22.779 6.79458 22.067 5.72893 21.1693 4.8313C20.2717 3.93367 19.2061 3.22163 18.0333 2.73583C16.8604 2.25004 15.6034 2 14.334 2C13.7817 2 13.334 1.55228 13.334 1Z" fill="#2C9BF6"/>
</svg>
