<svg width="40" height="41" viewBox="0 0 40 41" fill="none" xmlns="http://www.w3.org/2000/svg">
<rect y="0.0332031" width="40" height="40" rx="10" fill="url(#paint0_linear_934_15493)"/>
<g clip-path="url(#clip0_934_15493)">
<path d="M11 14.0082C11 13.4358 11.2027 12.9636 11.6081 12.5915C12.0135 12.2195 12.5405 12.0334 13.1892 12.0334C13.8263 12.0334 14.3417 12.2166 14.7355 12.5829C15.1409 12.9607 15.3436 13.453 15.3436 14.0597C15.3436 14.6092 15.1467 15.0671 14.7529 15.4334C14.3475 15.8112 13.8147 16.0001 13.1544 16.0001H13.1371C12.5 16.0001 11.9846 15.8112 11.5907 15.4334C11.1969 15.0557 11 14.5806 11 14.0082ZM11.2259 29.0334V17.5627H15.083V29.0334H11.2259ZM17.2201 29.0334H21.0772V22.6284C21.0772 22.2277 21.1236 21.9186 21.2162 21.7011C21.3784 21.3119 21.6245 20.9827 21.9546 20.7137C22.2847 20.4447 22.6988 20.3102 23.1969 20.3102C24.4942 20.3102 25.1429 21.1745 25.1429 22.9031V29.0334H29V22.4567C29 20.7624 28.5946 19.4774 27.7838 18.6016C26.973 17.7259 25.9016 17.288 24.5695 17.288C23.0753 17.288 21.9112 17.9233 21.0772 19.194V19.2284H21.0598L21.0772 19.194V17.5627H17.2201C17.2432 17.9291 17.2548 19.0681 17.2548 20.9799C17.2548 22.8917 17.2432 25.5762 17.2201 29.0334Z" fill="white"/>
</g>
<defs>
<linearGradient id="paint0_linear_934_15493" x1="20" y1="0.0332031" x2="20" y2="73.5332" gradientUnits="userSpaceOnUse">
<stop stop-color="#2C9BF6"/>
<stop offset="1" stop-color="#0052B4"/>
</linearGradient>
<clipPath id="clip0_934_15493">
<rect width="18" height="17" fill="white" transform="translate(11 12.0332)"/>
</clipPath>
</defs>
</svg>
