<svg width="100" height="100" viewBox="0 0 100 100" fill="none" xmlns="http://www.w3.org/2000/svg">
<circle cx="50" cy="50" r="40" fill="black"/>
<g filter="url(#filter0_f_666_11962)">
<circle cx="50" cy="50" r="10" fill="#2C9BF6"/>
</g>
<path d="M60.2732 60.1821H51.5459M60.2732 60.1821C61.8798 60.1821 63.1822 61.4846 63.1822 63.0912C63.1822 64.6979 61.8798 66.0003 60.2732 66.0003H51.5459C49.9392 66.0003 48.6368 64.6979 48.6368 63.0912C48.6368 61.4846 49.9392 60.1821 51.5459 60.1821M60.2732 60.1821C61.8798 60.1821 63.1822 58.8797 63.1822 57.273C63.1822 55.6664 61.8798 54.3639 60.2732 54.3639H59.3035M51.5459 60.1821C49.9392 60.1821 48.6368 58.8797 48.6368 57.273C48.6368 55.6664 49.9392 54.3639 51.5459 54.3639H59.3035M51.0738 66.0003H46.1998C40.2429 66.0003 36.0366 60.1644 37.9204 54.5132L39.3749 50.1496C40.5628 46.5859 43.8978 44.1821 47.6543 44.1821H49.6193C53.3757 44.1821 56.7108 46.5859 57.8987 50.1496L59.3035 54.3639" stroke="#2C9BF6" stroke-width="2.18182" stroke-linejoin="round"/>
<path d="M51.5452 44.1821L45.727 44.1821L43.773 41.9024C41.8575 39.6677 44.0921 36.3275 46.8887 37.2451L48.1826 37.6697C48.4772 37.7664 48.795 37.7664 49.0896 37.6697L50.3835 37.2451C53.1801 36.3275 55.4147 39.6677 53.4992 41.9024L51.5452 44.1821Z" stroke="#2C9BF6" stroke-width="2.18182" stroke-linejoin="round"/>
<defs>
<filter id="filter0_f_666_11962" x="0" y="0" width="100" height="100" filterUnits="userSpaceOnUse" color-interpolation-filters="sRGB">
<feFlood flood-opacity="0" result="BackgroundImageFix"/>
<feBlend mode="normal" in="SourceGraphic" in2="BackgroundImageFix" result="shape"/>
<feGaussianBlur stdDeviation="20" result="effect1_foregroundBlur_666_11962"/>
</filter>
</defs>
</svg>
