<svg width="24" height="24" viewBox="0 0 24 24" fill="none" xmlns="http://www.w3.org/2000/svg">
<g clip-path="url(#clip0_616_11957)">
<path fill-rule="evenodd" clip-rule="evenodd" d="M0.576605 2.69513C0.0136719 3.77882 0.0136719 5.20255 0.0136719 8.05V15.95C0.0136719 18.7975 0.0136719 20.2212 0.576605 21.3049C1.05098 22.2181 1.79558 22.9627 2.7088 23.4371C3.79249 24 5.21622 24 8.06367 24H15.9637C18.8111 24 20.2349 24 21.3185 23.4371C22.2318 22.9627 22.9764 22.2181 23.4507 21.3049C24.0137 20.2212 24.0137 18.7975 24.0137 15.95V8.05C24.0137 5.20255 24.0137 3.77882 23.4507 2.69513C22.9764 1.78191 22.2318 1.03731 21.3185 0.562933C20.2349 0 18.8111 0 15.9637 0H8.06367C5.21622 0 3.79249 0 2.7088 0.562933C1.79558 1.03731 1.05098 1.78191 0.576605 2.69513ZM8.4019 3.32546C9.33278 3.2831 9.63022 3.27274 12.0003 3.27274H11.9976C14.3684 3.27274 14.6648 3.2831 15.5957 3.32546C16.5247 3.36801 17.1593 3.5151 17.7156 3.73092C18.2901 3.95364 18.7756 4.25183 19.261 4.73728C19.7465 5.22237 20.0446 5.70928 20.2683 6.28328C20.4828 6.83819 20.6301 7.47237 20.6737 8.40146C20.7155 9.33237 20.7264 9.62983 20.7264 12C20.7264 14.3702 20.7155 14.6669 20.6737 15.5978C20.6301 16.5266 20.4828 17.1609 20.2683 17.716C20.0446 18.2898 19.7465 18.7767 19.261 19.2618C18.7761 19.7473 18.29 20.0462 17.7162 20.2691C17.1609 20.4849 16.526 20.632 15.597 20.6746C14.6661 20.7169 14.3695 20.7273 11.9992 20.7273C9.62932 20.7273 9.33205 20.7169 8.40117 20.6746C7.47229 20.632 6.83794 20.4849 6.28269 20.2691C5.70907 20.0462 5.22218 19.7473 4.73728 19.2618C4.25202 18.7767 3.95385 18.2898 3.73077 17.7158C3.51514 17.1609 3.36805 16.5267 3.32532 15.5976C3.28314 14.6667 3.2726 14.3702 3.2726 12C3.2726 9.62983 3.28351 9.33219 3.32514 8.40128C3.36696 7.47255 3.51423 6.83819 3.73058 6.2831C3.95421 5.70928 4.25239 5.22237 4.73783 4.73728C5.2229 4.25201 5.7098 3.95383 6.28378 3.73092C6.83867 3.5151 7.47284 3.36801 8.4019 3.32546ZM11.7095 4.84538C11.533 4.8453 11.3695 4.84522 11.2174 4.84546V4.84328C9.59095 4.8451 9.27896 4.85601 8.4739 4.89237C7.62301 4.93146 7.16103 5.07328 6.8534 5.19328C6.44614 5.35183 6.15524 5.54092 5.84979 5.84637C5.54435 6.15183 5.3549 6.44274 5.19672 6.85001C5.07727 7.15764 4.93509 7.61946 4.89619 8.47037C4.85437 9.39037 4.846 9.66528 4.846 11.9958C4.846 14.3264 4.85437 14.6027 4.89619 15.5227C4.93491 16.3736 5.07727 16.8355 5.19672 17.1427C5.35526 17.5502 5.54435 17.8404 5.84979 18.1458C6.15524 18.4513 6.44614 18.6404 6.8534 18.7986C7.16121 18.918 7.62301 19.0602 8.4739 19.0995C9.39387 19.1413 9.67004 19.1504 12.0003 19.1504C14.3304 19.1504 14.6068 19.1413 15.5268 19.0995C16.3777 19.0606 16.8398 18.9187 17.1471 18.7987C17.5545 18.6406 17.8445 18.4515 18.15 18.146C18.4554 17.8407 18.6449 17.5507 18.803 17.1435C18.9225 16.8362 19.0647 16.3744 19.1036 15.5235C19.1454 14.6035 19.1545 14.3271 19.1545 11.998C19.1545 9.66892 19.1454 9.39255 19.1036 8.47255C19.0648 7.62164 18.9225 7.15983 18.803 6.85255C18.6445 6.44528 18.4554 6.15437 18.15 5.84892C17.8447 5.54346 17.5543 5.35437 17.1471 5.19619C16.8395 5.07674 16.3777 4.93455 15.5268 4.89564C14.6066 4.85383 14.3304 4.84546 12.0003 4.84546C11.8996 4.84546 11.8027 4.84542 11.7095 4.84538ZM15.6115 7.34146C15.6115 6.7631 16.0806 6.29455 16.6587 6.29455V6.29419C17.2369 6.29419 17.706 6.76328 17.706 7.34146C17.706 7.91964 17.2369 8.38874 16.6587 8.38874C16.0806 8.38874 15.6115 7.91964 15.6115 7.34146ZM7.51865 12C7.51865 9.52498 9.52522 7.51829 12.0002 7.51819C14.4752 7.51819 16.4813 9.52492 16.4813 12C16.4813 14.4751 14.4753 16.4809 12.0003 16.4809C9.52532 16.4809 7.51865 14.4751 7.51865 12ZM14.9093 12C14.9093 10.3933 13.6068 9.09092 12.0003 9.09092C10.3937 9.09092 9.09133 10.3933 9.09133 12C9.09133 13.6066 10.3937 14.9091 12.0003 14.9091C13.6068 14.9091 14.9093 13.6066 14.9093 12Z" fill="#A7AEBF"/>
</g>
<defs>
<clipPath id="clip0_616_11957">
<rect width="24" height="24" fill="white"/>
</clipPath>
</defs>
</svg>
