<svg width="130" height="220" viewBox="0 0 130 220" fill="none" xmlns="http://www.w3.org/2000/svg">
<path d="M128.359 3.97573C128.103 8.8679 127.875 13.6833 127.619 18.5755C127.515 20.024 125.808 20.6101 124.771 19.8722C122.564 18.521 120.463 17.1219 118.256 15.7707C108.768 29.196 104.385 45.5822 103.215 62.0335C102.007 79.5208 106.739 99.1435 97.9047 115.264C96.0171 118.67 92.8925 122.576 89.1152 125.888C93.5426 134.633 94.8346 145.443 93.1134 154.249C90.8185 165.992 82.7095 175.733 71.9402 180.19C69.9039 191.241 62.0162 202.028 53.7708 208.393C38.795 220.114 18.25 222.4 1.00794 214.459C-0.191415 213.922 0.526819 212.003 1.72617 212.54C14.9572 218.105 30.2568 218.143 43.2502 211.718C55.0546 205.898 65.4264 194.553 68.3439 181.382C66.5888 181.862 64.8625 182.266 63.0401 182.459C51.5303 183.752 31.9191 176.061 38.5766 161.314C44.6977 147.766 61.8887 150.7 68.7731 161.765C71.6152 166.329 72.6542 171.269 72.3694 176.238C80.8176 172.137 87.2779 164.229 89.4112 154.789C91.3244 146.404 90.2919 136.304 86.2581 128.144C78.099 134.278 67.7606 137.584 60.0825 130.51C55.5141 126.35 55.1839 119.75 59.4976 115.239C64.3482 110.229 71.7244 109.927 77.5393 113.329C81.579 115.629 84.8521 119.042 87.3005 123.021C94.5961 116.388 98.6379 106.525 99.4471 96.4142C100.104 88.3467 99.3891 80.2034 99.269 72.1077C99.2257 64.0407 99.8059 55.9445 101.259 48.0876C103.496 35.7987 107.844 23.9497 114.984 13.7584C113.842 13.0685 112.728 12.3018 111.587 11.6118C110.512 11.2096 109.389 10.7019 108.286 10.3765C107.442 10.0604 107.134 9.2453 107.316 8.52577C107.066 7.55712 107.756 6.41522 108.802 6.19396C114.987 4.39642 120.991 2.61817 127.023 0.763174C128.989 0.186435 129.643 2.88144 128.359 3.97573ZM62.5366 159.256C57.7859 155.115 50.9363 153.776 45.711 157.684C40.1117 161.889 39.0324 169.448 44.4838 174.289C49.2057 178.506 56.2663 179.749 62.4625 179.093C64.7548 178.813 66.8744 178.294 68.9746 177.592C69.6324 170.925 67.8632 163.963 62.5366 159.256ZM78.0505 117.808C72.8298 113.754 63.1411 112.753 60.2201 120.323C58.9273 123.777 60.9247 127.325 63.8131 129.193C67.258 131.445 71.5743 131.136 75.3242 130.002C78.7863 128.935 81.9028 127.389 84.6737 125.363C82.8878 122.419 80.6992 119.85 78.0505 117.808Z" fill="#787A8D"/>
</svg>
