<svg width="218" height="51" viewBox="0 0 218 51" fill="none" xmlns="http://www.w3.org/2000/svg">
<path d="M56.0159 10.2082L63.0723 0L31.5655 16.7707L0 0L7.11518 10.2082V21.522L11.8194 28.1785L8.97335 40.6683L23.2978 44.5728L27.2023 50.1356H35.9758L39.8803 44.5728L54.2047 40.6683L51.3586 28.1785L56.0629 21.522L56.0159 10.2082ZM53.9107 7.53857V9.39675L44.1376 23.4272L34.0705 18.0879L53.9107 7.53857ZM27.8021 46.8779L27.7433 46.972L14.689 28.3902L18.4289 26.4026L30.1895 43.3614L27.8021 46.8779ZM32.9533 43.3497L44.7727 26.3909L48.5126 28.3784L35.4583 46.9602L32.9533 43.3497ZM31.5655 41.4092L20.3694 25.3442L31.5655 19.3933L42.7616 25.3442L31.5655 41.4092ZM19.0287 23.4154L9.22033 9.39675V7.53857L29.0605 18.1231L19.0287 23.4154ZM9.22033 13.2778L17.0176 24.4856L13.266 26.4732L9.22033 20.7105V13.2778ZM11.5725 38.9277L13.4894 30.5424L21.2279 41.5621L11.5725 38.9277ZM51.6292 38.9277L41.9737 41.5621L49.7122 30.5541L51.6292 38.9277ZM49.8651 26.4732L46.1134 24.4856L53.9107 13.2778V20.7105L49.8651 26.4732Z" fill="url(#paint0_linear_615_11802)"/>
<path d="M179.226 34.8207C177.915 34.8656 176.608 34.6432 175.386 34.1671C174.164 33.691 173.051 32.9712 172.116 32.0514C171.181 31.1316 170.443 30.0312 169.946 28.817C169.45 27.6028 169.206 26.3003 169.229 24.9888C169.229 19.3319 173.463 15.5215 179.226 15.5215H190.198V18.1676H179.226C175.827 18.1676 172.04 20.3081 172.04 25.1299C172.04 29.9518 175.85 32.1863 180.754 32.1863H190.163V34.8089L179.226 34.8207Z" fill="#C6DBF1"/>
<path d="M214.036 34.8208L205.628 26.6825L197.172 34.8208H193.644L203.993 24.8948L194.314 15.4863H198.207L205.886 23.0132L213.613 15.4863H217.271L207.603 24.742L218 34.7855L214.036 34.8208Z" fill="#C6DBF1"/>
<path d="M74.0498 34.8207V15.5215H80.036V29.2814H93.2196V34.8207H74.0498Z" fill="#2C9BF6"/>
<path d="M99.2884 34.8207V28.5876L88.7861 15.5215H96.4893L100.406 20.802C101.13 21.7082 101.779 22.6718 102.346 23.6834C102.907 22.6835 103.531 21.7211 104.216 20.802L107.956 15.5215H115.447L105.286 28.6228V34.8207H99.2884Z" fill="#2C9BF6"/>
<path d="M159.585 34.8207L154.292 28.9404L148.788 34.8207H141.32L146.789 29.0815C148.048 27.6756 149.4 26.3555 150.835 25.1299C149.538 23.9782 148.309 22.7531 147.154 21.4606L141.579 15.5215H149.906L154.88 21.1431L159.914 15.5215H167.676L161.866 21.5547C159.867 23.6246 159.008 24.4125 158.467 24.8712C160.019 26.1638 161.451 27.5925 162.748 29.1403L168.04 34.8207H159.585Z" fill="#2C9BF6"/>
<path d="M122.186 15.5215L132.83 25.9061V15.5215H138.275V34.8207H133.406L122.798 24.4596V34.8207H117.353V15.5215H122.186Z" fill="#2C9BF6"/>
<defs>
<linearGradient id="paint0_linear_615_11802" x1="31.5655" y1="47.019" x2="31.5655" y2="11.596" gradientUnits="userSpaceOnUse">
<stop stop-color="#C6DBF1"/>
<stop offset="1" stop-color="#2C9BF6"/>
</linearGradient>
</defs>
</svg>
