<svg width="30" height="24" viewBox="0 0 30 24" fill="none" xmlns="http://www.w3.org/2000/svg">
<path fill-rule="evenodd" clip-rule="evenodd" d="M0.666016 9.33398C0.666016 4.36342 4.69545 0.333984 9.66601 0.333984H20.3327C25.3032 0.333984 29.3327 4.36342 29.3327 9.33398V14.6673C29.3327 19.6379 25.3032 23.6673 20.3327 23.6673H9.66601C4.69545 23.6673 0.666016 19.6379 0.666016 14.6673V9.33398ZM9.66601 2.33398C5.80002 2.33398 2.66602 5.46799 2.66602 9.33398V14.6673C2.66602 18.5333 5.80002 21.6673 9.66601 21.6673H20.3327C24.1987 21.6673 27.3327 18.5333 27.3327 14.6673V9.33398C27.3327 5.46799 24.1987 2.33398 20.3327 2.33398H9.66601Z" fill="#2C9BF6"/>
<path fill-rule="evenodd" clip-rule="evenodd" d="M7.5512 7.37632C7.89621 6.94506 8.5255 6.87514 8.95676 7.22014L12.2917 9.88811C13.8743 11.1542 16.1231 11.1542 17.7057 9.88811L21.0407 7.22014C21.472 6.87514 22.1013 6.94506 22.4463 7.37632C22.7913 7.80758 22.7214 8.43687 22.2901 8.78188L18.9551 11.4499C16.6421 13.3003 13.3554 13.3003 11.0423 11.4498L7.70737 8.78188C7.27611 8.43687 7.20619 7.80758 7.5512 7.37632Z" fill="#2C9BF6"/>
</svg>
