<svg width="411" height="392" viewBox="0 0 411 392" fill="none" xmlns="http://www.w3.org/2000/svg">
<path opacity="0.02" d="M436.956 79.6301L492 0L246.229 130.821L0 0L55.5025 79.6301V167.884L92.1984 219.808L69.9973 317.236L181.736 347.693L212.194 391.086H280.632L311.089 347.693L422.828 317.236L400.627 219.808L437.323 167.884L436.956 79.6301ZM420.535 58.8052V73.3001L344.299 182.746L265.77 141.096L420.535 58.8052ZM216.873 365.674L216.414 366.408L114.583 221.46L143.756 205.956L235.496 338.244L216.873 365.674ZM257.055 338.152L349.253 205.864L378.426 221.368L276.595 366.317L257.055 338.152ZM246.229 323.015L158.893 197.699L246.229 151.279L333.565 197.699L246.229 323.015ZM148.435 182.654L71.9239 73.3001V58.8052L226.689 141.371L148.435 182.654ZM71.9239 103.574L132.747 191.002L103.482 206.506L71.9239 161.554V103.574ZM90.2718 303.658L105.225 238.248L165.59 324.208L90.2718 303.658ZM402.737 303.658L327.419 324.208L387.784 238.34L402.737 303.658ZM388.976 206.506L359.711 191.002L420.535 103.574V161.554L388.976 206.506Z" fill="#2C9BF6"/>
</svg>
