<svg width="24" height="24" viewBox="0 0 24 24" fill="none" xmlns="http://www.w3.org/2000/svg">
<g clip-path="url(#clip0_974_16211)">
<path d="M0.0136719 8.05C0.0136719 5.20255 0.0136719 3.77882 0.576605 2.69513C1.05098 1.78191 1.79558 1.03731 2.7088 0.562933C3.79249 0 5.21622 0 8.06367 0H15.9637C18.8111 0 20.2349 0 21.3185 0.562933C22.2318 1.03731 22.9764 1.78191 23.4507 2.69513C24.0137 3.77882 24.0137 5.20255 24.0137 8.05V15.95C24.0137 18.7975 24.0137 20.2212 23.4507 21.3049C22.9764 22.2181 22.2318 22.9627 21.3185 23.4371C20.2349 24 18.8111 24 15.9637 24H8.06367C5.21622 24 3.79249 24 2.7088 23.4371C1.79558 22.9627 1.05098 22.2181 0.576605 21.3049C0.0136719 20.2212 0.0136719 18.7975 0.0136719 15.95V8.05Z" fill="#A7AEBF"/>
<path d="M16.1144 9.29103C16.6664 8.73903 17.2144 7.45103 14.9144 9.01503C11.6464 11.27 8.42541 13.387 8.42541 13.387C8.09385 13.537 7.7354 13.6183 7.3716 13.6262C7.00781 13.6341 6.64617 13.5684 6.30841 13.433C4.92841 13.019 3.31741 12.467 3.31741 12.467C3.31741 12.467 2.21741 11.776 4.10041 11.04C4.10041 11.04 12.0614 7.77303 14.8224 6.62203C15.8804 6.16203 19.4694 4.69003 19.4694 4.69003C19.4694 4.69003 21.1264 4.04503 20.9884 5.61003C20.9424 6.25403 20.5744 8.51003 20.2064 10.948C19.6534 14.399 19.0554 18.173 19.0554 18.173C19.0554 18.173 18.9634 19.231 18.1814 19.415C17.3443 19.4009 16.5355 19.1097 15.8814 18.587C15.6974 18.449 12.4304 16.378 11.2334 15.366C11.1116 15.2835 11.0127 15.1716 10.9458 15.0406C10.879 14.9096 10.8463 14.7639 10.8509 14.6169C10.8555 14.4699 10.8972 14.3264 10.9721 14.1999C11.047 14.0733 11.1527 13.9678 11.2794 13.893C12.9394 12.375 14.9184 10.488 16.1144 9.29103Z" fill="#090B11"/>
</g>
<defs>
<clipPath id="clip0_974_16211">
<rect width="24" height="24" fill="white"/>
</clipPath>
</defs>
</svg>
