<svg width="28" height="35" viewBox="0 0 28 35" fill="none" xmlns="http://www.w3.org/2000/svg">
<path d="M22.5714 22.5714H12.2857V8.85714H22.5714M22.5714 22.5714C24.465 22.5714 26 21.0364 26 19.1429V12.2857C26 10.3922 24.465 8.85714 22.5714 8.85714M22.5714 22.5714V29.4286C22.5714 31.3221 21.0364 32.8571 19.1429 32.8571H5.42857C3.53502 32.8571 2 31.3221 2 29.4286V5.42857C2 3.53502 3.53502 2 5.42857 2H19.1429C21.0364 2 22.5714 3.53502 22.5714 5.42857V8.85714" stroke="#2C9BF6" stroke-width="2.57143" stroke-linejoin="round"/>
<circle cx="12.2866" cy="27.7143" r="1.71429" fill="#2C9BF6"/>
<path d="M26 14L12.2857 14" stroke="#2C9BF6" stroke-width="2.57143" stroke-linecap="round" stroke-linejoin="round"/>
</svg>
