<svg width="420" height="500" viewBox="0 0 420 500" fill="none" xmlns="http://www.w3.org/2000/svg">
<path opacity="0.4" d="M255.73 364.929L200.78 333.209C196.78 330.929 197.32 326.929 201.89 324.289L237.49 303.739L306.78 343.739L271.18 364.289C266.61 366.929 259.69 367.219 255.73 364.929Z" fill="#D6D8E5"/>
<path d="M260.679 362L205.739 330.28C201.739 327.99 202.279 324 206.849 321.35L242.449 300.8L311.729 340.8L276.139 361.35C271.559 364 264.639 364.32 260.679 362Z" fill="#B1B4C4"/>
<path d="M311.729 340.839V338.739L308.539 340.579L311.729 340.839Z" fill="#B1B4C4"/>
<path d="M203.07 326.53V324.39L206.35 325.76L203.07 326.53Z" fill="#B1B4C4"/>
<path d="M260.679 359.929L205.739 328.209C201.739 325.919 202.279 321.929 206.849 319.289L242.449 298.729L311.729 338.729L276.139 359.279C271.559 361.929 264.639 362.219 260.679 359.929Z" fill="#D6D8E5"/>
<path d="M242.629 298.83L234.059 270.38L304.099 310.55L311.729 338.74L242.629 298.83Z" fill="#9EA1AF"/>
<path d="M309.699 339.91L311.699 338.74L308.699 336.33L309.699 339.91Z" fill="#9EA1AF"/>
<path d="M240.42 299.899L231.85 271.449L301.89 311.619L309.7 339.909L240.42 299.899Z" fill="#B1B4C4"/>
<path d="M412.84 385.45L141.71 228.91C137.91 226.72 134.83 220.83 134.83 215.76V5.9997C134.83 0.929701 137.91 -1.4003 141.71 0.799701L412.84 157.36C416.64 159.56 419.72 165.45 419.72 170.52V380.24C419.72 385.31 416.64 387.65 412.84 385.45Z" fill="#B1B4C4"/>
<path d="M414.229 387.61L417.238 385.88L415.939 376.97L414.229 387.61Z" fill="#B1B4C4"/>
<path d="M134.34 2.12016L137.34 0.410156L141.59 2.83016C141.59 2.83016 137.06 3.53016 136.95 3.50016C136.84 3.47016 134.34 2.12016 134.34 2.12016Z" fill="#B1B4C4"/>
<path d="M410.35 386.89L139.23 230.35C135.42 228.15 132.34 222.26 132.34 217.19V7.46965C132.34 2.39965 135.42 0.0696493 139.23 2.25965L410.35 158.8C414.16 160.99 417.24 166.88 417.24 171.95V381.68C417.24 386.75 414.16 389.08 410.35 386.89Z" fill="#E4E7F2"/>
<path d="M409.879 387.16L138.749 230.62C134.949 228.43 131.859 222.54 131.859 217.47V7.74016C131.859 2.67016 134.949 0.340157 138.749 2.53016L409.879 159.07C413.679 161.27 416.759 167.16 416.759 172.23V382C416.759 387 413.679 389.35 409.879 387.16Z" fill="#D6D8E5"/>
<path d="M412.999 374.4L135.309 214.06L135.449 8.57994C135.449 6.47994 136.929 5.57994 138.749 6.67994L409.879 163.21C410.839 163.837 411.639 164.682 412.212 165.675C412.786 166.669 413.117 167.784 413.179 168.93L412.999 374.4Z" fill="#2B303F"/>
<path opacity="0.5" d="M412.999 374.4L135.309 214.06L135.449 8.57994C135.449 6.47994 136.929 5.57994 138.749 6.67994L409.879 163.21C410.839 163.837 411.639 164.682 412.212 165.675C412.786 166.669 413.117 167.784 413.179 168.93L412.999 374.4Z" fill="url(#paint0_linear_1302_18820)"/>
<path opacity="0.4" d="M167.821 486.17L8.67079 394.17C6.40079 392.86 6.67079 390.58 9.30079 389.06L68.8108 354.71C71.4308 353.19 75.3908 353.03 77.6608 354.34L236.811 446.34C239.081 447.65 238.811 449.94 236.181 451.45L176.671 485.81C174.051 487.32 170.091 487.48 167.821 486.17Z" fill="#D6D8E5"/>
<path d="M238.939 444L80.4994 352.45C78.2394 351.14 74.2694 351.31 71.6595 352.82L12.4094 387L9.99945 386.07V389.87C9.98266 390.377 10.1173 390.878 10.3862 391.309C10.6551 391.74 11.0461 392.081 11.5094 392.29L170.669 484.29C172.939 485.6 176.899 485.43 179.519 483.92L238.999 449.55C240.469 448.7 241.209 447.61 241.169 446.55V442.75L238.939 444Z" fill="#B1B4C4"/>
<path d="M170.67 480.48L11.5097 388.48C9.2397 387.17 9.5097 384.89 12.1497 383.37L71.6597 349C74.2697 347.48 78.2397 347.32 80.4997 348.63L239.66 440.63C241.93 441.94 241.66 444.23 239.02 445.74L179.52 480.1C176.9 481.63 172.94 481.79 170.67 480.48Z" fill="#D6D8E5"/>
<path d="M67.4401 366L59.6001 361.47C58.9601 361.1 59.0401 360.47 59.7801 360.03L67.2601 355.71C67.6379 355.498 68.0604 355.379 68.4931 355.362C68.9258 355.344 69.3565 355.429 69.7501 355.61L77.5901 360.13C78.2301 360.5 78.1501 361.13 77.4101 361.57L69.9301 365.89C69.553 366.103 69.1309 366.224 68.6982 366.243C68.2655 366.262 67.8344 366.179 67.4401 366Z" fill="#2B303F"/>
<path d="M78.5397 372.4L70.6997 367.88C70.0597 367.51 70.1397 366.88 70.8797 366.44L78.3597 362.12C78.7375 361.908 79.16 361.789 79.5927 361.772C80.0254 361.754 80.4561 361.839 80.8497 362.02L88.6897 366.54C89.3297 366.91 89.2497 367.54 88.5097 367.98L80.9997 372.3C80.6256 372.507 80.2085 372.623 79.7815 372.641C79.3545 372.658 78.9293 372.576 78.5397 372.4Z" fill="#2B303F"/>
<path d="M89.7604 378.89L81.9204 374.36C81.2804 373.99 81.3604 373.36 82.1004 372.92L89.5804 368.6C89.96 368.388 90.3841 368.269 90.8184 368.251C91.2527 368.234 91.685 368.319 92.0804 368.5L99.9204 373C100.56 373.37 100.47 374 99.7404 374.44L92.2604 378.76C91.8823 378.974 91.4596 379.097 91.0257 379.12C90.5918 379.142 90.1586 379.063 89.7604 378.89Z" fill="#2B303F"/>
<path d="M100.731 385.22L92.8911 380.69C92.2511 380.32 92.3311 379.69 93.0711 379.25L100.551 374.93C100.931 374.721 101.355 374.603 101.789 374.585C102.223 374.568 102.655 374.652 103.051 374.83L110.891 379.36C111.531 379.73 111.451 380.36 110.711 380.8L103.231 385.12C102.851 385.329 102.427 385.447 101.993 385.465C101.559 385.482 101.127 385.398 100.731 385.22Z" fill="#2B303F"/>
<path d="M111.83 391.63L104 387.1C103.36 386.73 103.44 386.1 104.18 385.66L111.66 381.34C112.04 381.128 112.464 381.009 112.899 380.991C113.333 380.974 113.765 381.059 114.16 381.24L121.99 385.76C122.63 386.13 122.55 386.76 121.82 387.2L114.33 391.52C113.952 391.735 113.528 391.857 113.094 391.876C112.659 391.895 112.226 391.811 111.83 391.63Z" fill="#2B303F"/>
<path d="M122.93 398L115.09 393.48C114.45 393.11 114.53 392.48 115.27 392.04L122.75 387.72C123.128 387.509 123.55 387.389 123.982 387.37C124.415 387.351 124.845 387.433 125.24 387.61L133.08 392.14C133.72 392.51 133.64 393.14 132.9 393.58L125.42 397.9C125.042 398.111 124.62 398.23 124.187 398.248C123.755 398.265 123.324 398.18 122.93 398Z" fill="#2B303F"/>
<path d="M134 404.44L126.16 399.92C125.52 399.55 125.6 398.92 126.33 398.47L133.82 394.16C134.197 393.947 134.619 393.826 135.051 393.806C135.484 393.787 135.915 393.871 136.31 394.05L144.15 398.58C144.79 398.95 144.71 399.58 143.97 400.02L136.49 404.34C136.111 404.549 135.689 404.667 135.256 404.684C134.824 404.702 134.394 404.618 134 404.44Z" fill="#2B303F"/>
<path d="M145.12 410.85L137.28 406.32C136.64 405.95 136.72 405.32 137.46 404.88L144.94 400.56C145.32 400.351 145.744 400.232 146.178 400.215C146.612 400.198 147.044 400.282 147.44 400.46L155.28 404.99C155.92 405.36 155.84 405.99 155.1 406.43L147.62 410.75C147.239 410.959 146.815 411.077 146.382 411.095C145.948 411.112 145.516 411.028 145.12 410.85Z" fill="#2B303F"/>
<path d="M156.221 417.26L148.381 412.73C147.741 412.36 147.821 411.73 148.561 411.29L156.001 407C156.381 406.788 156.805 406.669 157.239 406.652C157.674 406.634 158.106 406.719 158.501 406.9L166.341 411.42C166.981 411.79 166.901 412.42 166.161 412.86L158.681 417.18C158.305 417.382 157.887 417.494 157.461 417.508C157.034 417.522 156.61 417.437 156.221 417.26Z" fill="#2B303F"/>
<path d="M167.321 423.66L159.481 419.14C158.841 418.77 158.921 418.14 159.661 417.7L167.141 413.38C167.519 413.169 167.941 413.049 168.373 413.03C168.805 413.011 169.236 413.093 169.631 413.27L177.471 417.8C178.111 418.17 178.031 418.8 177.301 419.24L169.811 423.56C169.433 423.771 169.011 423.891 168.578 423.908C168.145 423.925 167.715 423.84 167.321 423.66Z" fill="#2B303F"/>
<path d="M178.421 430.07L170.581 425.54C169.941 425.18 170.021 424.54 170.761 424.1L178.241 419.79C178.618 419.576 179.04 419.455 179.472 419.436C179.905 419.417 180.336 419.501 180.731 419.68L188.571 424.21C189.211 424.58 189.131 425.21 188.391 425.65L180.911 430C180.53 430.204 180.106 430.317 179.674 430.329C179.242 430.341 178.812 430.252 178.421 430.07Z" fill="#2B303F"/>
<path d="M189.511 436.479L181.681 431.999C181.041 431.629 181.121 430.999 181.851 430.559L189.341 426.239C189.72 426.03 190.142 425.912 190.574 425.895C191.007 425.877 191.437 425.961 191.831 426.139L199.671 430.669C200.311 431.029 200.231 431.669 199.491 432.109L192.001 436.379C191.622 436.587 191.2 436.704 190.768 436.722C190.336 436.739 189.906 436.656 189.511 436.479Z" fill="#2B303F"/>
<path d="M200.61 442.89L192.77 438.36C192.13 437.99 192.21 437.36 192.95 436.92L200.43 432.6C200.81 432.388 201.234 432.269 201.668 432.251C202.102 432.234 202.535 432.319 202.93 432.5L210.77 437.02C211.41 437.39 211.33 438.02 210.59 438.46L203.11 442.78C202.731 442.993 202.307 443.114 201.873 443.133C201.439 443.152 201.006 443.069 200.61 442.89Z" fill="#2B303F"/>
<path d="M217.06 452.379L203.87 444.769C203.23 444.399 203.31 443.769 204.05 443.329L211.53 439.009C211.908 438.796 212.332 438.675 212.766 438.656C213.201 438.637 213.633 438.72 214.03 438.899L227.21 446.519C227.85 446.889 227.77 447.519 227.03 447.959L219.55 452.279C219.171 452.489 218.749 452.607 218.316 452.624C217.884 452.641 217.454 452.558 217.06 452.379Z" fill="#2B303F"/>
<path d="M73.1412 381.709L65.3012 377.189C64.6612 376.819 64.7412 376.189 65.4812 375.749L73.0012 371.429C73.3801 371.216 73.8038 371.095 74.2381 371.076C74.6724 371.057 75.1051 371.14 75.5012 371.319L83.3412 375.849C83.9812 376.219 83.9012 376.849 83.1612 377.289L75.6812 381.609C75.2958 381.825 74.8647 381.947 74.4232 381.964C73.9818 381.982 73.5425 381.894 73.1412 381.709Z" fill="#2B303F"/>
<path d="M84.2604 388.13L76.4204 383.6C75.7804 383.24 75.8604 382.6 76.6004 382.16L84.0804 377.84C84.4608 377.631 84.8847 377.513 85.3186 377.495C85.7525 377.478 86.1844 377.562 86.5804 377.74L94.4204 382.27C95.0604 382.64 94.9704 383.27 94.2404 383.71L86.7604 388C86.3823 388.214 85.9596 388.338 85.5257 388.36C85.0918 388.383 84.6586 388.304 84.2604 388.13Z" fill="#2B303F"/>
<path d="M95.3795 394.549L87.5395 389.999C86.8995 389.629 86.9795 388.999 87.7195 388.559L95.1995 384.239C95.5781 384.03 96.0004 383.912 96.4327 383.895C96.8649 383.877 97.2953 383.961 97.6895 384.139L105.53 388.669C106.17 389.029 106.09 389.669 105.35 390.109L97.8695 394.429C97.4925 394.642 97.071 394.763 96.6387 394.784C96.2064 394.805 95.7752 394.725 95.3795 394.549Z" fill="#2B303F"/>
<path d="M106.491 400.999L98.6512 396.469C98.0212 396.099 98.1012 395.469 98.8312 395.029L106.311 390.709C106.692 390.5 107.116 390.382 107.549 390.365C107.983 390.347 108.415 390.431 108.811 390.609L116.651 395.129C117.291 395.499 117.211 396.129 116.471 396.569L109.001 400.859C108.624 401.079 108.199 401.206 107.763 401.23C107.327 401.255 106.891 401.176 106.491 400.999Z" fill="#2B303F"/>
<path d="M117.52 407.33L109.68 402.81C109.04 402.44 109.12 401.81 109.86 401.37L117.34 397.05C117.72 396.839 118.143 396.719 118.577 396.7C119.011 396.681 119.443 396.763 119.84 396.94L127.68 401.47C128.32 401.84 128.24 402.47 127.5 402.91L120 407.23C119.623 407.438 119.202 407.556 118.772 407.573C118.341 407.59 117.913 407.507 117.52 407.33Z" fill="#2B303F"/>
<path d="M128.641 413.749L120.801 409.229C120.161 408.859 120.241 408.229 120.981 407.789L128.461 403.469C128.84 403.256 129.264 403.135 129.698 403.116C130.132 403.097 130.565 403.18 130.961 403.359L138.791 407.889C139.431 408.259 139.351 408.889 138.621 409.329L131.131 413.649C130.753 413.861 130.331 413.98 129.898 413.998C129.466 414.015 129.035 413.93 128.641 413.749Z" fill="#2B303F"/>
<path d="M139.76 420.17L131.92 415.65C131.28 415.28 131.36 414.65 132.1 414.2L139.58 409.89C139.957 409.677 140.379 409.556 140.812 409.537C141.245 409.518 141.676 409.601 142.07 409.78L149.91 414.31C150.55 414.68 150.47 415.31 149.73 415.75L142.25 420.07C141.872 420.279 141.449 420.397 141.017 420.415C140.585 420.432 140.155 420.348 139.76 420.17Z" fill="#2B303F"/>
<path d="M150.87 426.59L143 422.06C142.36 421.69 142.44 421.06 143.18 420.62L150.66 416.3C151.041 416.091 151.465 415.973 151.899 415.955C152.333 415.938 152.765 416.022 153.16 416.2L161 420.73C161.64 421.1 161.56 421.73 160.82 422.17L153.34 426.49C152.964 426.695 152.545 426.81 152.117 426.827C151.689 426.845 151.262 426.764 150.87 426.59Z" fill="#2B303F"/>
<path d="M162.001 432.999L154.161 428.469C153.521 428.099 153.601 427.469 154.341 427.029L161.821 422.709C162.201 422.5 162.625 422.382 163.059 422.365C163.493 422.347 163.925 422.431 164.321 422.609L172.161 427.129C172.801 427.499 172.721 428.129 171.981 428.579L164.501 432.889C164.122 433.103 163.698 433.224 163.264 433.243C162.829 433.262 162.397 433.178 162.001 432.999Z" fill="#2B303F"/>
<path d="M173.11 439.429L165.27 434.899C164.63 434.529 164.71 433.899 165.45 433.459L172.93 429.14C173.308 428.928 173.73 428.809 174.163 428.791C174.596 428.774 175.026 428.859 175.42 429.04L183.26 433.559C183.9 433.929 183.82 434.559 183.08 434.999L175.6 439.32C175.223 439.533 174.801 439.654 174.368 439.673C173.935 439.692 173.504 439.609 173.11 439.429Z" fill="#2B303F"/>
<path d="M184.22 445.839L176.39 441.319C175.75 440.949 175.83 440.319 176.56 439.879L184.05 435.559C184.428 435.348 184.85 435.229 185.283 435.211C185.716 435.194 186.146 435.279 186.54 435.459L194.38 439.979C195.02 440.349 194.94 440.979 194.2 441.419L186.72 445.739C186.34 445.951 185.916 446.07 185.482 446.088C185.048 446.105 184.615 446.02 184.22 445.839Z" fill="#2B303F"/>
<path d="M195.34 452.26L187.5 447.74C186.86 447.37 186.94 446.74 187.68 446.3L195.16 441.98C195.539 441.767 195.963 441.646 196.397 441.627C196.832 441.608 197.264 441.691 197.66 441.87L205.5 446.4C206.14 446.77 206.06 447.4 205.32 447.84L197.84 452.16C197.461 452.372 197.037 452.491 196.602 452.508C196.168 452.526 195.736 452.441 195.34 452.26Z" fill="#2B303F"/>
<path d="M62.001 375.289L48.811 367.679C48.171 367.309 48.251 366.679 48.991 366.239L56.471 361.919C56.8514 361.71 57.2753 361.592 57.7092 361.575C58.1431 361.557 58.5751 361.641 58.971 361.819L72.151 369.429C72.791 369.799 72.711 370.429 71.971 370.869L64.491 375.189C64.1131 375.401 63.6907 375.52 63.258 375.538C62.8253 375.555 62.3946 375.47 62.001 375.289Z" fill="#2B303F"/>
<path d="M216.52 452.79L208.68 448.26C208.32 448.079 207.923 447.985 207.52 447.985C207.118 447.985 206.72 448.079 206.36 448.26L198.45 452.83C198.311 452.878 198.191 452.969 198.106 453.089C198.021 453.209 197.975 453.352 197.975 453.5C197.975 453.647 198.021 453.79 198.106 453.91C198.191 454.03 198.311 454.121 198.45 454.17L199.07 454.53C199.66 454.87 199.66 455.42 199.07 455.77L190.72 460.59C190.578 460.636 190.454 460.726 190.366 460.848C190.278 460.969 190.23 461.115 190.23 461.265C190.23 461.414 190.278 461.56 190.366 461.682C190.454 461.803 190.578 461.893 190.72 461.94L195.72 464.82C196.08 465.002 196.477 465.098 196.88 465.098C197.283 465.098 197.681 465.002 198.04 464.82L205.86 460.31L207.48 459.37L208.64 458.7L209.81 458.02L216.55 454.13C216.688 454.078 216.807 453.985 216.889 453.863C216.971 453.741 217.014 453.596 217.011 453.449C217.007 453.302 216.958 453.159 216.871 453.041C216.783 452.923 216.66 452.835 216.52 452.79Z" fill="#2B303F"/>
<path d="M24.4596 390.86L16.6196 386.34C15.9796 385.97 16.0596 385.34 16.7996 384.9L24.2796 380.58C24.6574 380.368 25.0799 380.249 25.5126 380.232C25.9453 380.214 26.376 380.299 26.7696 380.48L34.6096 385C35.2496 385.37 35.1696 386 34.4296 386.44L26.9996 390.76C26.6155 390.98 26.184 391.104 25.7418 391.121C25.2996 391.138 24.8598 391.049 24.4596 390.86Z" fill="#2B303F"/>
<path d="M35.5201 397.25L27.6801 392.73C27.0401 392.36 27.1201 391.73 27.8601 391.29L35.3401 387C35.719 386.786 36.1427 386.665 36.577 386.646C37.0113 386.627 37.444 386.711 37.8401 386.89L45.6801 391.42C46.3201 391.79 46.2401 392.42 45.5001 392.86L38.0001 397.15C37.623 397.358 37.2025 397.476 36.772 397.493C36.3414 397.51 35.9128 397.427 35.5201 397.25Z" fill="#2B303F"/>
<path d="M46.5904 403.64L38.7504 399.12C38.1104 398.75 38.1904 398.12 38.9304 397.68L46.4104 393.36C46.7875 393.147 47.2096 393.026 47.6423 393.007C48.075 392.987 48.5061 393.071 48.9004 393.25L56.7404 397.78C57.3804 398.15 57.3004 398.78 56.5604 399.22L49.0804 403.54C48.7026 403.751 48.2801 403.871 47.8474 403.888C47.4147 403.905 46.984 403.82 46.5904 403.64Z" fill="#2B303F"/>
<path d="M140.83 458.05L133 453.53C132.36 453.16 132.44 452.53 133.18 452.09L140.66 447.77C141.039 447.557 141.463 447.436 141.897 447.417C142.332 447.398 142.764 447.481 143.16 447.66L151 452.19C151.63 452.56 151.55 453.19 150.82 453.63L143.33 458C142.947 458.204 142.521 458.315 142.086 458.323C141.652 458.332 141.222 458.238 140.83 458.05Z" fill="#2B303F"/>
<path d="M151.901 464.44L144.061 459.92C143.421 459.55 143.501 458.92 144.241 458.48L151.721 454.16C152.098 453.947 152.52 453.826 152.953 453.806C153.386 453.787 153.817 453.871 154.211 454.05L162.051 458.58C162.691 458.95 162.611 459.58 161.871 460.02L154.391 464.34C154.013 464.551 153.591 464.671 153.158 464.688C152.725 464.705 152.295 464.62 151.901 464.44Z" fill="#2B303F"/>
<path d="M163.001 470.829L155.161 466.309C154.521 465.939 154.601 465.309 155.341 464.859L162.821 460.549C163.199 460.336 163.623 460.215 164.057 460.196C164.492 460.177 164.924 460.26 165.321 460.439L173.161 464.969C173.801 465.339 173.721 465.969 172.981 466.409L165.501 470.729C165.12 470.939 164.696 471.057 164.262 471.074C163.829 471.092 163.397 471.008 163.001 470.829Z" fill="#2B303F"/>
<path d="M174.001 477.22L166.161 472.69C165.521 472.33 165.601 471.69 166.341 471.25L173.821 466.93C174.199 466.721 174.621 466.603 175.054 466.585C175.486 466.568 175.916 466.652 176.311 466.83L184.151 471.36C184.791 471.73 184.711 472.36 183.981 472.8L176.491 477.12C176.112 477.329 175.69 477.447 175.257 477.465C174.825 477.482 174.395 477.398 174.001 477.22Z" fill="#2B303F"/>
<path d="M60.5094 411.68L49.8094 405.51C49.1794 405.14 49.2594 404.51 49.9894 404.07L57.4694 399.75C57.8483 399.536 58.272 399.415 58.7063 399.396C59.1406 399.377 59.5733 399.461 59.9694 399.64L70.6594 405.81C71.2994 406.18 71.2194 406.81 70.4794 407.26L62.9994 411.57C62.6224 411.783 62.2003 411.904 61.7676 411.923C61.3349 411.942 60.9038 411.859 60.5094 411.68Z" fill="#2B303F"/>
<path d="M129.761 451.66L119.071 445.49C118.431 445.12 118.511 444.49 119.251 444.05L126.731 439.73C127.111 439.52 127.535 439.402 127.969 439.385C128.403 439.368 128.835 439.452 129.231 439.63L139.921 445.8C140.561 446.17 140.481 446.8 139.741 447.24L132.261 451.56C131.881 451.771 131.457 451.891 131.023 451.908C130.588 451.926 130.156 451.84 129.761 451.66Z" fill="#2B303F"/>
<path d="M115.851 443.629L63.7309 413.539C63.0909 413.169 63.1709 412.539 63.9109 412.099L71.3909 407.779C71.7706 407.568 72.1947 407.448 72.629 407.431C73.0633 407.414 73.4956 407.499 73.8909 407.679L126.001 437.769C126.641 438.139 126.561 438.769 125.821 439.209L118.341 443.529C117.962 443.739 117.54 443.857 117.108 443.874C116.675 443.891 116.245 443.808 115.851 443.629Z" fill="#2B303F"/>
<path d="M65.4108 389.67L57.5708 385.14C56.9308 384.77 57.0108 384.14 57.7508 383.7L65.2308 379.38C65.6086 379.168 66.0311 379.049 66.4638 379.032C66.8965 379.014 67.3272 379.099 67.7208 379.28L75.5608 383.8C76.2008 384.17 76.1208 384.8 75.3808 385.24L67.9008 389.56C67.5237 389.773 67.1016 389.894 66.6689 389.913C66.2362 389.932 65.8051 389.849 65.4108 389.67Z" fill="#2B303F"/>
<path d="M76.4908 396.069L68.6508 391.539C68.0108 391.169 68.0908 390.539 68.8308 390.099L76.3108 385.779C76.6905 385.568 77.1146 385.448 77.5489 385.431C77.9832 385.414 78.4155 385.499 78.8108 385.679L86.6508 390.199C87.2908 390.569 87.2108 391.199 86.4708 391.639L79.0008 395.999C78.6175 396.208 78.1904 396.323 77.7542 396.335C77.318 396.347 76.8852 396.256 76.4908 396.069Z" fill="#2B303F"/>
<path d="M87.5807 402.47L79.7407 397.94C79.1007 397.57 79.1807 396.94 79.9207 396.5L87.4007 392.18C87.7785 391.968 88.201 391.849 88.6337 391.831C89.0664 391.814 89.4971 391.899 89.8907 392.08L97.7307 396.6C98.3707 396.97 98.2907 397.6 97.5507 398.04L90.0707 402.36C89.6936 402.573 89.2716 402.694 88.8389 402.713C88.4062 402.732 87.9751 402.649 87.5807 402.47Z" fill="#2B303F"/>
<path d="M98.6608 408.87L90.8208 404.34C90.1808 403.97 90.2608 403.34 91.0008 402.9L98.4808 398.58C98.8604 398.368 99.2845 398.249 99.7188 398.232C100.153 398.214 100.585 398.299 100.981 398.48L108.821 403C109.461 403.37 109.381 404 108.641 404.44L101.161 408.76C100.782 408.973 100.358 409.094 99.9239 409.113C99.4896 409.133 99.0569 409.049 98.6608 408.87Z" fill="#2B303F"/>
<path d="M109.751 415.269L101.911 410.739C101.271 410.369 101.351 409.739 102.091 409.299L109.571 404.979C109.948 404.768 110.371 404.648 110.804 404.631C111.236 404.614 111.667 404.699 112.061 404.879L119.901 409.399C120.541 409.769 120.461 410.399 119.721 410.839L112.241 415.159C111.864 415.372 111.441 415.494 111.009 415.513C110.576 415.532 110.145 415.448 109.751 415.269Z" fill="#2B303F"/>
<path d="M120.83 421.67L113 417.14C112.36 416.77 112.44 416.14 113.18 415.7L120.66 411.38C121.04 411.168 121.464 411.049 121.899 411.032C122.333 411.014 122.765 411.099 123.16 411.28L131 415.8C131.64 416.17 131.56 416.8 130.82 417.24L123.34 421.56C122.96 421.775 122.535 421.897 122.099 421.916C121.662 421.935 121.228 421.851 120.83 421.67Z" fill="#2B303F"/>
<path d="M131.921 428.07L124.081 423.54C123.441 423.17 123.521 422.54 124.261 422.1L131.741 417.78C132.118 417.569 132.541 417.449 132.974 417.432C133.406 417.415 133.837 417.5 134.231 417.68L142.071 422.2C142.711 422.57 142.631 423.2 141.901 423.64L134.411 428C134.03 428.207 133.607 428.321 133.174 428.333C132.741 428.345 132.312 428.255 131.921 428.07Z" fill="#2B303F"/>
<path d="M143.001 434.47L135.171 429.94C134.531 429.57 134.611 428.94 135.341 428.5L142.831 424.18C143.209 423.968 143.632 423.849 144.064 423.831C144.497 423.814 144.928 423.899 145.321 424.08L153.161 428.6C153.801 428.97 153.721 429.6 152.981 430.04L145.501 434.36C145.122 434.573 144.699 434.694 144.264 434.713C143.83 434.732 143.397 434.649 143.001 434.47Z" fill="#2B303F"/>
<path d="M154.09 440.869L146.25 436.339C145.61 435.969 145.69 435.339 146.43 434.899L153.91 430.579C154.291 430.37 154.715 430.252 155.149 430.235C155.583 430.217 156.015 430.301 156.41 430.479L164.25 434.999C164.88 435.369 164.8 435.999 164.07 436.439L156.59 440.759C156.212 440.973 155.788 441.094 155.354 441.113C154.919 441.132 154.487 441.049 154.09 440.869Z" fill="#2B303F"/>
<path d="M165.18 447.269L157.34 442.739C156.7 442.369 156.78 441.739 157.52 441.299L165 436.999C165.379 436.79 165.801 436.672 166.233 436.655C166.666 436.637 167.096 436.721 167.49 436.899L175.33 441.419C175.97 441.789 175.89 442.419 175.15 442.869L167.67 447.179C167.292 447.389 166.869 447.507 166.436 447.522C166.003 447.538 165.573 447.451 165.18 447.269Z" fill="#2B303F"/>
<path d="M176.26 453.669L168.42 449.139C167.78 448.769 167.86 448.139 168.6 447.699L176.08 443.379C176.461 443.17 176.885 443.052 177.319 443.034C177.752 443.017 178.184 443.101 178.58 443.279L186.42 447.799C187.06 448.169 186.98 448.799 186.24 449.249L178.76 453.559C178.382 453.772 177.958 453.894 177.523 453.913C177.089 453.932 176.656 453.848 176.26 453.669Z" fill="#2B303F"/>
<path d="M187.35 460.069L179.51 455.54C178.87 455.17 178.95 454.539 179.69 454.099L187.17 449.779C187.549 449.57 187.971 449.452 188.403 449.435C188.836 449.417 189.266 449.501 189.66 449.679L197.5 454.2C198.14 454.57 198.06 455.199 197.32 455.649L189.84 459.999C189.46 460.206 189.036 460.32 188.604 460.333C188.171 460.345 187.741 460.255 187.35 460.069Z" fill="#2B303F"/>
<path d="M54.3198 383.27L38.1098 373.9C37.4698 373.54 37.5498 372.9 38.2898 372.46L45.7698 368.14C46.1485 367.931 46.5707 367.813 47.003 367.795C47.4353 367.778 47.8656 367.862 48.2598 368.04L64.4798 377.4C65.1198 377.77 65.0398 378.4 64.2998 378.84L56.8198 383.16C56.4402 383.371 56.0167 383.491 55.5828 383.51C55.1489 383.529 54.7165 383.447 54.3198 383.27Z" fill="#2B303F"/>
<path d="M49.151 392.699L41.311 388.169C40.671 387.799 40.751 387.169 41.491 386.729L49.001 382.409C49.3796 382.2 49.8019 382.082 50.2342 382.065C50.6664 382.047 51.0968 382.131 51.491 382.309L59.331 386.839C59.971 387.209 59.891 387.839 59.151 388.279L51.671 392.599C51.2886 392.814 50.8609 392.934 50.423 392.952C49.985 392.969 49.5492 392.883 49.151 392.699Z" fill="#2B303F"/>
<path d="M60.2311 399.1L52.3911 394.57C51.7511 394.2 51.8311 393.57 52.5711 393.13L60.0511 388.81C60.4315 388.601 60.8554 388.482 61.2893 388.465C61.7232 388.448 62.1551 388.532 62.5511 388.71L70.3911 393.24C71.0311 393.6 70.9411 394.24 70.2111 394.68L62.7311 399C62.3514 399.212 61.9273 399.331 61.493 399.348C61.0587 399.366 60.6264 399.281 60.2311 399.1Z" fill="#2B303F"/>
<path d="M71.3111 405.5L63.4711 401C62.8311 400.63 62.9111 400 63.6511 399.56L71.1311 395.24C71.5116 395.03 71.9355 394.912 72.3694 394.895C72.8032 394.877 73.2352 394.961 73.6311 395.14L81.4711 399.66C82.1111 400.03 82.0311 400.66 81.2911 401.1L73.8111 405.42C73.4299 405.628 73.005 405.744 72.5707 405.758C72.1364 405.772 71.7049 405.683 71.3111 405.5Z" fill="#2B303F"/>
<path d="M82.401 411.899L74.561 407.369C73.921 406.999 74.001 406.369 74.741 405.929L82.221 401.609C82.5989 401.398 83.0213 401.278 83.454 401.261C83.8867 401.244 84.3174 401.329 84.711 401.509L92.551 405.999C93.191 406.369 93.111 406.999 92.371 407.439L84.891 411.759C84.5163 411.977 84.0955 412.103 83.6628 412.128C83.2301 412.152 82.7977 412.074 82.401 411.899Z" fill="#2B303F"/>
<path d="M93.4811 418.3L85.6411 413.77C85.0011 413.4 85.0811 412.77 85.8211 412.33L93.3011 408C93.6807 407.788 94.1048 407.669 94.5391 407.652C94.9734 407.634 95.4057 407.719 95.8011 407.9L103.641 412.42C104.281 412.79 104.201 413.42 103.461 413.86L96.0011 418.19C95.6189 418.404 95.1918 418.526 94.7542 418.545C94.3165 418.564 93.8804 418.48 93.4811 418.3Z" fill="#2B303F"/>
<path d="M104.56 424.69L96.7299 420.17C96.0899 419.8 96.1699 419.17 96.8999 418.73L104.39 414.41C104.768 414.198 105.19 414.079 105.623 414.062C106.056 414.044 106.486 414.129 106.88 414.31L114.72 418.83C115.36 419.2 115.28 419.83 114.54 420.27L107.06 424.59C106.68 424.802 106.256 424.921 105.822 424.938C105.388 424.956 104.955 424.871 104.56 424.69Z" fill="#2B303F"/>
<path d="M115.651 431.089L107.811 426.569C107.171 426.199 107.251 425.569 107.991 425.129L115.471 420.809C115.849 420.599 116.271 420.479 116.703 420.46C117.135 420.441 117.566 420.523 117.961 420.699L125.801 425.229C126.441 425.599 126.361 426.229 125.621 426.669L118.141 430.999C117.762 431.209 117.339 431.327 116.907 431.343C116.474 431.358 116.044 431.271 115.651 431.089Z" fill="#2B303F"/>
<path d="M126.731 437.49L118.891 433C118.251 432.63 118.331 432 119.071 431.56L126.551 427.24C126.93 427.027 127.354 426.906 127.788 426.886C128.222 426.867 128.655 426.951 129.051 427.13L136.891 431.66C137.531 432.03 137.451 432.66 136.711 433.1L129.231 437.42C128.849 437.627 128.424 437.741 127.989 437.753C127.555 437.765 127.124 437.675 126.731 437.49Z" fill="#2B303F"/>
<path d="M137.82 443.89L130 439.37C129.36 439 129.44 438.37 130.18 437.93L137.66 433.61C138.038 433.397 138.46 433.276 138.892 433.257C139.325 433.237 139.756 433.321 140.15 433.5L148 438C148.64 438.37 148.56 439 147.82 439.44L140.34 443.76C139.961 443.981 139.535 444.108 139.096 444.131C138.658 444.154 138.22 444.071 137.82 443.89Z" fill="#2B303F"/>
<path d="M148.901 450.289L141.061 445.769C140.421 445.399 140.501 444.769 141.241 444.319L148.721 440.009C149.1 439.796 149.524 439.675 149.958 439.656C150.392 439.637 150.825 439.72 151.221 439.899L159.051 444.429C159.691 444.799 159.611 445.429 158.881 445.869L151.391 450.189C151.012 450.399 150.59 450.517 150.158 450.534C149.726 450.551 149.295 450.468 148.901 450.289Z" fill="#2B303F"/>
<path d="M160.001 456.69L152.161 452.16C151.521 451.8 151.601 451.16 152.341 450.72L159.821 446.4C160.201 446.19 160.625 446.072 161.059 446.055C161.493 446.038 161.925 446.121 162.321 446.3L170.161 450.83C170.801 451.2 170.721 451.83 169.981 452.27L162.501 456.59C162.12 456.799 161.696 456.917 161.262 456.935C160.829 456.952 160.397 456.868 160.001 456.69Z" fill="#2B303F"/>
<path d="M184.791 470.999L163.231 458.549C162.591 458.179 162.671 457.549 163.411 457.109L170.891 452.789C171.27 452.58 171.692 452.462 172.124 452.445C172.556 452.427 172.987 452.511 173.381 452.689L194.941 465.139C195.581 465.509 195.501 466.139 194.761 466.579L187.281 470.899C186.902 471.109 186.48 471.227 186.048 471.244C185.615 471.261 185.185 471.177 184.791 470.999Z" fill="#2B303F"/>
<path d="M38.0596 386.3L27.3696 380.13C26.7296 379.76 26.8096 379.13 27.5496 378.69L34.9996 374.37C35.3792 374.159 35.8027 374.039 36.2366 374.02C36.6705 374.001 37.1029 374.083 37.4996 374.26L48.1896 380.44C48.8296 380.81 48.7496 381.44 48.0096 381.88L40.5296 386.2C40.153 386.405 39.7345 386.52 39.3062 386.537C38.878 386.555 38.4515 386.474 38.0596 386.3Z" fill="#2B303F"/>
<path d="M228.19 446L70.7797 355.07C70.1397 354.7 70.2197 354.07 70.9597 353.63L74.6997 351.47C75.0776 351.259 75.4994 351.139 75.9317 351.12C76.364 351.101 76.7948 351.183 77.1897 351.36L234.6 442.25C235.24 442.62 235.16 443.25 234.43 443.69L230.69 445.85C230.313 446.067 229.891 446.194 229.457 446.22C229.024 446.246 228.589 446.17 228.19 446Z" fill="#2B303F"/>
<path opacity="0.2" d="M353.951 500C367.62 500 378.701 493.602 378.701 485.71C378.701 477.818 367.62 471.42 353.951 471.42C340.282 471.42 329.201 477.818 329.201 485.71C329.201 493.602 340.282 500 353.951 500Z" fill="#A7AEBF"/>
<path d="M381.121 483.68V445.56L331.731 446.81L331.831 481.94C330.911 486.17 333.261 490.59 338.881 493.84C348.541 499.42 364.211 499.42 373.881 493.84C378.741 491 381.151 487.35 381.121 483.68Z" fill="#2C9BF6"/>
<path d="M356.381 459.85C370.05 459.85 381.131 453.452 381.131 445.56C381.131 437.667 370.05 431.27 356.381 431.27C342.712 431.27 331.631 437.667 331.631 445.56C331.631 453.452 342.712 459.85 356.381 459.85Z" fill="#0052B4"/>
<path d="M377.21 445.56C377.21 447.89 375.28 450.33 371.92 452.27C367.624 454.543 362.859 455.785 358 455.9C357.467 455.9 356.937 455.9 356.41 455.9C350.56 455.9 344.9 454.57 340.87 452.24C337.51 450.3 335.58 447.86 335.58 445.53C335.58 443.2 337.51 440.76 340.87 438.82C344.87 436.49 350.56 435.16 356.41 435.16C356.94 435.16 357.47 435.16 358 435.16C362.869 435.262 367.646 436.502 371.95 438.78C375.28 440.79 377.21 443.24 377.21 445.56Z" fill="#28221C"/>
<path opacity="0.07" d="M377.211 445.56C377.211 447.89 375.281 450.33 371.921 452.27C367.655 454.65 362.851 455.9 357.966 455.9C353.081 455.9 348.277 454.65 344.011 452.27C340.651 450.33 338.721 447.89 338.721 445.56C338.721 443.23 340.651 440.79 344.011 438.85C348.279 436.476 353.082 435.23 357.966 435.23C362.85 435.23 367.653 436.476 371.921 438.85C375.281 440.79 377.211 443.24 377.211 445.56Z" fill="white"/>
<path d="M377.511 463.21L372.251 460.21L369.701 461.69L372.251 463.17V464.17L377.181 467.01L377.031 467.92C377.751 468.53 380.291 473.23 380.291 473.23L380.481 473.07V485.34C380.481 488.56 378.591 487.47 377.781 487L372.251 483.81L369.701 485.29L372.251 486.77V487.77L377.781 490.96C378.349 491.294 378.953 491.562 379.581 491.76L379.251 493.3L382.111 491.69C383.311 490.98 383.801 489.29 383.801 487.38V474.41C383.881 469 379.711 464.71 377.511 463.21Z" fill="#0052B4"/>
<path d="M375.231 492.339L369.701 489.149V485.219L375.231 488.419C376.031 488.879 377.921 489.969 377.921 486.749V473.929C377.921 470.929 375.181 468.809 374.721 468.479L369.721 465.579V461.649L374.971 464.649C377.181 466.149 381.341 470.419 381.341 475.849V488.679C381.321 492.169 379.721 494.939 375.231 492.339Z" fill="#0052B4"/>
<path opacity="0.4" d="M23.3096 302.1C33.919 302.1 42.5196 297.135 42.5196 291.01C42.5196 284.885 33.919 279.92 23.3096 279.92C12.7002 279.92 4.09961 284.885 4.09961 291.01C4.09961 297.135 12.7002 302.1 23.3096 302.1Z" fill="#D6D8E5"/>
<path d="M26.0498 300.039C36.6592 300.039 45.2598 295.074 45.2598 288.949C45.2598 282.825 36.6592 277.859 26.0498 277.859C15.4405 277.859 6.83984 282.825 6.83984 288.949C6.83984 295.074 15.4405 300.039 26.0498 300.039Z" fill="#D6D8E5"/>
<path d="M0.339844 251.029L7.05984 289.729H45.2098L51.7698 251.309L0.339844 251.029Z" fill="#D6D8E5"/>
<path d="M26.0505 265.409C40.2664 265.409 51.7905 258.756 51.7905 250.549C51.7905 242.343 40.2664 235.689 26.0505 235.689C11.8347 235.689 0.310547 242.343 0.310547 250.549C0.310547 258.756 11.8347 265.409 26.0505 265.409Z" fill="#E4E6EF"/>
<path d="M26.0498 262.14C19.7398 262.14 13.8598 260.75 9.48984 258.22C5.73984 256.06 3.58984 253.22 3.58984 250.55C3.58984 247.88 5.73984 245.05 9.48984 242.88C13.8598 240.36 19.7398 238.97 26.0498 238.97C32.3598 238.97 38.2398 240.36 42.6098 242.88C46.3598 245.05 48.5098 247.88 48.5098 250.55C48.5098 253.22 46.3598 256.06 42.6098 258.22C38.2398 260.75 32.3598 262.14 26.0498 262.14Z" fill="#28221C"/>
<path d="M37.1305 238.85C37.4956 233.848 36.7 228.829 34.8058 224.186C32.9115 219.542 29.9699 215.399 26.2105 212.08L26.1305 212.01V212.15C22.3684 215.464 19.4234 219.602 17.5256 224.243C15.6278 228.883 14.8286 233.899 15.1905 238.9L0.480469 237.51C6.69047 260.92 26.2105 258.9 26.2105 258.9C27.6805 259.01 45.8805 259.95 51.8305 237.49L37.1305 238.85Z" fill="#0052B4"/>
<path d="M26.2103 258.899C26.2103 258.899 24.8903 240.679 0.42034 228.399C0.42034 228.399 -5.37966 258.679 26.2103 258.899Z" fill="#2C9BF6"/>
<path d="M26.0508 258.899C26.0508 258.899 27.3708 240.679 51.8408 228.399C51.8408 228.399 57.6408 258.679 26.0508 258.899Z" fill="#2C9BF6"/>
<defs>
<linearGradient id="paint0_linear_1302_18820" x1="135.309" y1="190.31" x2="413.179" y2="190.31" gradientUnits="userSpaceOnUse">
<stop offset="0.21" stop-color="white" stop-opacity="0"/>
<stop offset="1" stop-color="white" stop-opacity="0.2"/>
</linearGradient>
</defs>
</svg>
