<svg width="39" height="32" viewBox="0 0 39 32" fill="none" xmlns="http://www.w3.org/2000/svg">
<path d="M33.699 21.7425C33.9709 21.0706 33.6467 20.3054 32.9748 20.0334C32.3029 19.7614 31.5377 20.0856 31.2657 20.7575L33.699 21.7425ZM5.30105 10.2575C5.02907 10.9294 5.35327 11.6946 6.02519 11.9666C6.6971 12.2386 7.46228 11.9144 7.73426 11.2425L5.30105 10.2575ZM34.8125 16C34.8125 7.54314 27.9569 0.6875 19.5 0.6875V3.3125C26.5071 3.3125 32.1875 8.99289 32.1875 16H34.8125ZM4.1875 16C4.1875 24.4569 11.0431 31.3125 19.5 31.3125V28.6875C12.4929 28.6875 6.8125 23.0071 6.8125 16H4.1875ZM19.5 31.3125C25.9283 31.3125 31.4284 27.3518 33.699 21.7425L31.2657 20.7575C29.3826 25.4096 24.8225 28.6875 19.5 28.6875V31.3125ZM19.5 0.6875C13.0717 0.6875 7.57163 4.64824 5.30105 10.2575L7.73426 11.2425C9.61739 6.59035 14.1775 3.3125 19.5 3.3125V0.6875Z" fill="#2C9BF6"/>
<path d="M23 12.5C23 10.567 21.433 9 19.5 9C17.567 9 16 10.567 16 12.5C16 14.433 17.567 16 19.5 16" stroke="#2C9BF6" stroke-width="2.625" stroke-linecap="round"/>
<path d="M19.5 16C21.433 16 23 17.567 23 19.5C23 21.433 21.433 23 19.5 23C17.567 23 16 21.433 16 19.5" stroke="#2C9BF6" stroke-width="2.625" stroke-linecap="round"/>
<path d="M19.5 6.375V9" stroke="#2C9BF6" stroke-width="2.625" stroke-linecap="round" stroke-linejoin="round"/>
<path d="M19.5 23V25.625" stroke="#2C9BF6" stroke-width="2.625" stroke-linecap="round" stroke-linejoin="round"/>
<path d="M30 14.25L31.5652 15.0326C32.751 15.6255 34.1699 15.4975 35.2305 14.7021L37 13.375" stroke="#2C9BF6" stroke-width="2.625" stroke-linecap="round" stroke-linejoin="round"/>
<path d="M2 17.75L3.56525 16.9674C4.75099 16.3745 6.16993 16.5025 7.2305 17.2979L9 18.625" stroke="#2C9BF6" stroke-width="2.625" stroke-linecap="round" stroke-linejoin="round"/>
</svg>
