<svg width="40" height="41" viewBox="0 0 40 41" fill="none" xmlns="http://www.w3.org/2000/svg">
<rect y="0.0332031" width="40" height="40" rx="10" fill="url(#paint0_linear_934_15491)"/>
<path d="M24.1144 17.3242C24.6664 16.7722 25.2144 15.4842 22.9144 17.0482C19.6464 19.3032 16.4254 21.4202 16.4254 21.4202C16.0938 21.5702 15.7354 21.6515 15.3716 21.6594C15.0078 21.6673 14.6462 21.6016 14.3084 21.4662C12.9284 21.0522 11.3174 20.5002 11.3174 20.5002C11.3174 20.5002 10.2174 19.8092 12.1004 19.0732C12.1004 19.0732 20.0614 15.8062 22.8224 14.6552C23.8804 14.1952 27.4694 12.7232 27.4694 12.7232C27.4694 12.7232 29.1264 12.0782 28.9884 13.6432C28.9424 14.2872 28.5744 16.5432 28.2064 18.9812C27.6534 22.4322 27.0554 26.2062 27.0554 26.2062C27.0554 26.2062 26.9634 27.2642 26.1814 27.4482C25.3443 27.4341 24.5355 27.1429 23.8814 26.6202C23.6974 26.4822 20.4304 24.4112 19.2334 23.3992C19.1116 23.3168 19.0127 23.2048 18.9458 23.0738C18.879 22.9428 18.8463 22.7971 18.8509 22.6501C18.8555 22.5031 18.8972 22.3596 18.9721 22.2331C19.047 22.1065 19.1527 22.001 19.2794 21.9262C20.9394 20.4082 22.9184 18.5212 24.1144 17.3242Z" fill="white"/>
<defs>
<linearGradient id="paint0_linear_934_15491" x1="20" y1="0.0332031" x2="20" y2="73.5332" gradientUnits="userSpaceOnUse">
<stop stop-color="#2C9BF6"/>
<stop offset="1" stop-color="#0052B4"/>
</linearGradient>
</defs>
</svg>
