<svg width="100" height="100" viewBox="0 0 100 100" fill="none" xmlns="http://www.w3.org/2000/svg">
<circle cx="50" cy="50" r="40" fill="black"/>
<g filter="url(#filter0_f_666_11964)">
<circle cx="50" cy="50" r="10" fill="#2C9BF6"/>
</g>
<path fill-rule="evenodd" clip-rule="evenodd" d="M47.6158 40.9745C47.2588 41.3453 47 42.035 47 43.4163C47 44.5928 47.2444 45.6956 47.7385 46.47C48.1984 47.1909 48.8901 47.6663 50 47.6663C51.1099 47.6663 51.8016 47.1909 52.2615 46.47C52.7556 45.6956 53 44.5928 53 43.4163C53 42.035 52.7412 41.3453 52.3842 40.9745C52.0361 40.6129 51.3786 40.333 50 40.333C48.6214 40.333 47.9639 40.6129 47.6158 40.9745ZM46.175 39.5874C47.0906 38.6364 48.4331 38.333 50 38.333C51.5669 38.333 52.9094 38.6364 53.825 39.5874C54.7316 40.529 55 41.881 55 43.4163C55 44.8172 54.7172 46.3394 53.9476 47.5457C53.1439 48.8054 51.8356 49.6663 50 49.6663C48.1644 49.6663 46.8561 48.8054 46.0524 47.5457C45.2828 46.3394 45 44.8172 45 43.4163C45 41.881 45.2684 40.529 46.175 39.5874Z" fill="#2C9BF6"/>
<path fill-rule="evenodd" clip-rule="evenodd" d="M45.1071 52.333C43.2066 52.333 41.666 53.8736 41.666 55.7741V55.9997C41.666 58.0247 43.3076 59.6663 45.3327 59.6663H54.666C56.6911 59.6663 58.3327 58.0247 58.3327 55.9997V55.7741C58.3327 53.8736 56.792 52.333 54.8916 52.333C54.5769 52.333 54.2743 52.4546 54.0471 52.6723L52.5363 54.1201C51.1181 55.4793 48.8806 55.4793 47.4624 54.1201L45.9516 52.6723C45.7244 52.4546 45.4218 52.333 45.1071 52.333ZM39.666 55.7741C39.666 52.7691 42.1021 50.333 45.1071 50.333C45.9375 50.333 46.7359 50.6538 47.3354 51.2284L48.8462 52.6761C49.4908 53.294 50.5079 53.294 51.1525 52.6762L52.6633 51.2284C53.2628 50.6538 54.0612 50.333 54.8916 50.333C57.8966 50.333 60.3327 52.7691 60.3327 55.7741V55.9997C60.3327 59.1293 57.7956 61.6663 54.666 61.6663H45.3327C42.2031 61.6663 39.666 59.1293 39.666 55.9997V55.7741Z" fill="#2C9BF6"/>
<defs>
<filter id="filter0_f_666_11964" x="0" y="0" width="100" height="100" filterUnits="userSpaceOnUse" color-interpolation-filters="sRGB">
<feFlood flood-opacity="0" result="BackgroundImageFix"/>
<feBlend mode="normal" in="SourceGraphic" in2="BackgroundImageFix" result="shape"/>
<feGaussianBlur stdDeviation="20" result="effect1_foregroundBlur_666_11964"/>
</filter>
</defs>
</svg>
