<svg width="24" height="24" viewBox="0 0 24 24" fill="none" xmlns="http://www.w3.org/2000/svg">
<g clip-path="url(#clip0_905_14594)">
<path d="M0.0136719 8.05C0.0136719 5.20255 0.0136719 3.77882 0.576605 2.69513C1.05098 1.78191 1.79558 1.03731 2.7088 0.562933C3.79249 0 5.21622 0 8.06367 0H15.9637C18.8111 0 20.2349 0 21.3185 0.562933C22.2318 1.03731 22.9764 1.78191 23.4507 2.69513C24.0137 3.77882 24.0137 5.20255 24.0137 8.05V15.95C24.0137 18.7975 24.0137 20.2212 23.4507 21.3049C22.9764 22.2181 22.2318 22.9627 21.3185 23.4371C20.2349 24 18.8111 24 15.9637 24H8.06367C5.21622 24 3.79249 24 2.7088 23.4371C1.79558 22.9627 1.05098 22.2181 0.576605 21.3049C0.0136719 20.2212 0.0136719 18.7975 0.0136719 15.95V8.05Z" fill="#A7AEBF"/>
<g clip-path="url(#clip1_905_14594)">
<path fill-rule="evenodd" clip-rule="evenodd" d="M15.6456 3C15.9534 5.64708 17.4309 7.22525 19.9996 7.39314V10.3704C18.511 10.5159 17.207 10.029 15.6904 9.11123V14.6796C15.6904 21.7534 7.97863 23.964 4.87825 18.8937C2.88594 15.631 4.10595 9.90591 10.497 9.67646V12.816C10.0101 12.8944 9.48965 13.0175 9.01396 13.1798C7.59248 13.6611 6.78661 14.5621 7.01046 16.1515C7.44138 19.1959 13.0266 20.0969 12.5621 14.148V3.0056H15.6456V3Z" fill="#090B11"/>
</g>
</g>
<defs>
<clipPath id="clip0_905_14594">
<rect width="24" height="24" fill="white"/>
</clipPath>
<clipPath id="clip1_905_14594">
<rect width="16" height="18.6527" fill="white" transform="translate(4 3)"/>
</clipPath>
</defs>
</svg>
