<svg width="24" height="24" viewBox="0 0 24 24" fill="none" xmlns="http://www.w3.org/2000/svg">
<g clip-path="url(#clip0_974_16206)">
<path d="M0.0136719 8.05C0.0136719 5.20255 0.0136719 3.77882 0.576605 2.69513C1.05098 1.78191 1.79558 1.03731 2.7088 0.562933C3.79249 0 5.21622 0 8.06367 0H15.9637C18.8111 0 20.2349 0 21.3185 0.562933C22.2318 1.03731 22.9764 1.78191 23.4507 2.69513C24.0137 3.77882 24.0137 5.20255 24.0137 8.05V15.95C24.0137 18.7975 24.0137 20.2212 23.4507 21.3049C22.9764 22.2181 22.2318 22.9627 21.3185 23.4371C20.2349 24 18.8111 24 15.9637 24H8.06367C5.21622 24 3.79249 24 2.7088 23.4371C1.79558 22.9627 1.05098 22.2181 0.576605 21.3049C0.0136719 20.2212 0.0136719 18.7975 0.0136719 15.95V8.05Z" fill="#A7AEBF"/>
<path d="M22 5.79997C21.2483 6.12606 20.4534 6.34163 19.64 6.43997C20.4982 5.92729 21.1413 5.12075 21.45 4.16997C20.6436 4.65003 19.7608 4.98826 18.84 5.16997C18.2245 4.50254 17.405 4.05826 16.5098 3.90682C15.6147 3.75537 14.6945 3.90532 13.8938 4.33315C13.093 4.76099 12.4569 5.4425 12.0852 6.2708C11.7135 7.09911 11.6273 8.02736 11.84 8.90997C10.2094 8.82749 8.61444 8.40292 7.15865 7.66383C5.70287 6.92474 4.41885 5.88766 3.39 4.61997C3.02914 5.25013 2.83952 5.96379 2.84 6.68997C2.83872 7.36435 3.00422 8.02858 3.32176 8.62353C3.63929 9.21848 4.09902 9.72568 4.66 10.1C4.00798 10.0822 3.36989 9.90726 2.8 9.58997V9.63997C2.80489 10.5849 3.13599 11.4991 3.73731 12.2279C4.33864 12.9568 5.17326 13.4556 6.1 13.64C5.74326 13.7485 5.37287 13.8058 5 13.81C4.74189 13.807 4.48442 13.7835 4.23 13.74C4.49391 14.5528 5.00462 15.2631 5.69107 15.7721C6.37753 16.2811 7.20558 16.5635 8.06 16.58C6.6172 17.7152 4.83588 18.3348 3 18.34C2.66574 18.3411 2.33174 18.321 2 18.28C3.87443 19.4902 6.05881 20.1327 8.29 20.13C9.82969 20.146 11.3571 19.855 12.7831 19.274C14.2091 18.6931 15.505 17.8338 16.5952 16.7465C17.6854 15.6591 18.548 14.3654 19.1326 12.9409C19.7172 11.5164 20.012 9.98969 20 8.44997C20 8.27996 20 8.09997 20 7.91997C20.7847 7.33478 21.4615 6.61739 22 5.79997Z" fill="#090B11"/>
</g>
<defs>
<clipPath id="clip0_974_16206">
<rect width="24" height="24" fill="white"/>
</clipPath>
</defs>
</svg>
