<svg width="26" height="26" viewBox="0 0 26 26" fill="none" xmlns="http://www.w3.org/2000/svg">
<path d="M16.9342 17.2199C19.0595 14.9961 21 11.6651 21 9C21 4.58172 17.4183 1 13 1C8.58172 1 5 4.58172 5 9C5 11.6651 6.94052 14.9961 9.06579 17.2199M16.9342 17.2199C15.5361 18.6828 14.0581 19.6667 13 19.6667C11.9419 19.6667 10.4639 18.6828 9.06579 17.2199M16.9342 17.2199C21.6293 17.7628 25 19.2502 25 21C25 23.2091 19.6274 25 13 25C6.37258 25 1 23.2091 1 21C1 19.2502 4.37069 17.7628 9.06579 17.2199" stroke="#2C9BF6" stroke-width="2"/>
</svg>
