<svg width="24" height="24" viewBox="0 0 24 24" fill="none" xmlns="http://www.w3.org/2000/svg">
<path fill-rule="evenodd" clip-rule="evenodd" d="M0.562933 2.69513C0 3.77882 0 5.20255 0 8.05V15.95C0 18.7975 0 20.2212 0.562933 21.3049C1.03731 22.2181 1.78191 22.9627 2.69513 23.4371C3.77882 24 5.20255 24 8.05 24H15.95C18.7975 24 20.2212 24 21.3049 23.4371C22.2181 22.9627 22.9627 22.2181 23.4371 21.3049C24 20.2212 24 18.7975 24 15.95V8.05C24 5.20255 24 3.77882 23.4371 2.69513C22.9627 1.78191 22.2181 1.03731 21.3049 0.562933C20.2212 0 18.7975 0 15.95 0H8.05C5.20255 0 3.77882 0 2.69513 0.562933C1.78191 1.03731 1.03731 1.78191 0.562933 2.69513ZM20.6292 7.47198C20.4217 6.70098 19.8138 6.09308 19.0428 5.8855C17.6342 5.5 12 5.5 12 5.5C12 5.5 6.36572 5.5 4.95716 5.87067C4.20098 6.07825 3.57825 6.70098 3.37067 7.47198C3 8.88055 3 11.8015 3 11.8015C3 11.8015 3 14.7372 3.37067 16.1309C3.57825 16.9019 4.18616 17.5098 4.95716 17.7174C6.38055 18.1029 12 18.1029 12 18.1029C12 18.1029 17.6342 18.1029 19.0428 17.7322C19.8138 17.5247 20.4217 16.9168 20.6292 16.1458C20.9999 14.7372 20.9999 11.8163 20.9999 11.8163C20.9999 11.8163 21.0147 8.88055 20.6292 7.47198ZM10.2059 14.397L14.8912 11.6985L10.2059 9V14.397Z" fill="#A7AEBF"/>
</svg>
